<svg xmlns="http://www.w3.org/2000/svg" x="0px" y="0px" width="50" height="50" viewBox="0,0,255.99966,255.99966">
<g fill="#ffffff" fill-rule="nonzero" stroke="none" stroke-width="1" stroke-linecap="butt" stroke-linejoin="miter" stroke-miterlimit="10" stroke-dasharray="" stroke-dashoffset="0" font-family="none" font-weight="none" font-size="none" text-anchor="none" style="mix-blend-mode: normal"><g transform="scale(5.12,5.12)"><path d="M8,4c-2.19922,0 -4,1.80078 -4,4v34c0,2.19922 1.80078,4 4,4h34c2.19922,0 4,-1.80078 4,-4v-34c0,-2.19922 -1.80078,-4 -4,-4zM8,6h16v3.58594l-11.41406,11.41406h11.41406v9h8.58594l-8.58594,8.58594v5.41406h-16c-1.11719,0 -2,-0.88281 -2,-2v-34c0,-1.11719 0.88281,-2 2,-2zM26,6h16c1.11719,0 2,0.88281 2,2v34c0,1.11719 -0.88281,2 -2,2h-16v-4.58594l11.41406,-11.41406h-11.41406v-9h-8.58594l8.58594,-8.58594z"></path></g></g>
</svg>